<svg width="18" height="33" viewBox="0 0 18 33" fill="none" xmlns="http://www.w3.org/2000/svg">
<path d="M0.790967 33C0.635565 33 0.483651 32.9539 0.354436 32.8676C0.225222 32.7813 0.12451 32.6586 0.0650368 32.515C0.00556323 32.3714 -0.0100013 32.2134 0.0203126 32.061C0.0506266 31.9086 0.125457 31.7686 0.23534 31.6587L15.3943 16.4998L0.23534 1.34091C0.0881702 1.19351 0.00554807 0.993711 0.00563335 0.785419C0.00571862 0.577128 0.0885052 0.377393 0.235796 0.230115C0.383087 0.0828364 0.582829 6.76415e-05 0.79112 4.14407e-08C0.999412 -6.75586e-05 1.19921 0.0825716 1.34659 0.229754L17.0611 15.9442C17.2084 16.0916 17.2912 16.2914 17.2912 16.4998C17.2912 16.7082 17.2084 16.908 17.0611 17.0554L1.34659 32.7699C1.27371 32.8429 1.1871 32.9009 1.09175 32.9404C0.996394 32.9799 0.894176 33.0001 0.790967 33Z" fill="#1E1E1E"/>
<path d="M0.790967 33C0.635565 33 0.483651 32.9539 0.354436 32.8676C0.225222 32.7813 0.12451 32.6586 0.0650368 32.515C0.00556323 32.3714 -0.0100013 32.2134 0.0203126 32.061C0.0506266 31.9086 0.125457 31.7686 0.23534 31.6587L15.3943 16.4998L0.23534 1.34091C0.0881702 1.19351 0.00554807 0.993711 0.00563335 0.785419C0.00571862 0.577128 0.0885052 0.377393 0.235796 0.230115C0.383087 0.0828364 0.582829 6.76415e-05 0.79112 4.14407e-08C0.999412 -6.75586e-05 1.19921 0.0825716 1.34659 0.229754L17.0611 15.9442C17.2084 16.0916 17.2912 16.2914 17.2912 16.4998C17.2912 16.7082 17.2084 16.908 17.0611 17.0554L1.34659 32.7699C1.27371 32.8429 1.1871 32.9009 1.09175 32.9404C0.996394 32.9799 0.894176 33.0001 0.790967 33Z" fill="#1E1E1E"/>
</svg>
